# xmcd
#
# Track frame offsets:
#	150
#	12287
#	23558
#	40629
#	55551
#	65155
#	90187
#	102190
#	116245
#	142525
#	157060
#	176852
#	189484
#	201871
#	216156
#	230652
#
# Disc length: 3394
#
# Revision: 1
# Processed by: cddbd v1.5.1PL0 Copyright (c) Steve Scherf et al.
# Submitted via: CDex 1.51
# Normalized: r0:DSETVAR1,TDELIM( - )
#
DISCID=d20d4010
DTITLE=Various Artist - Greatest Jazz LoveSongs
DYEAR=1900
DGENRE=Jazz
TTITLE0=Peggy Lee - I've Grown Accustomed To His Face
TTITLE1=Dinah Washington - What A Difference A Day Made
TTITLE2=Sammy Davis Jr. - Mr. Bojangles
TTITLE3=Miles Davis - Summertime
TTITLE4=Nancy Wilson - Moon River
TTITLE5=Barney Kessel - I'm Glad There Is You
TTITLE6=Nat King Cole - Nature Boy
TTITLE7=Astrud Gilberto - Love For Sale
TTITLE8=Chet Baker - I Talk To The Trees
TTITLE9=Sarah Vaughan - All Or Nothing At All
TTITLE10=Gene Ammons - I Remember You
TTITLE11=Dinah Washington - Mad About The Boy
TTITLE12=Nat King Cole, Geoge Shearing - Let There Be Love
TTITLE13=Peggy Lee - Dayes Of Wine And Roses
TTITLE14=Tony Bennett - A Times Goes By
TTITLE15=Ella Fitzgerald - Night And Day
EXTD=
EXTT0=
EXTT1=
EXTT2=
EXTT3=
EXTT4=
EXTT5=
EXTT6=
EXTT7=
EXTT8=
EXTT9=
EXTT10=
EXTT11=
EXTT12=
EXTT13=
EXTT14=
EXTT15=
PLAYORDER=
